<?xml version="1.0" encoding="UTF-8"?>
<svg id="Layer_2" data-name="Layer 2" xmlns="http://www.w3.org/2000/svg" viewBox="0 0 1407.78 250">
  <defs>
    <style>
      .cls-1 {
        fill: #4d4d4d;
      }

      .cls-2 {
        fill: #056dff;
      }
    </style>
  </defs>
  <g>
    <rect class="cls-1" x="24.6" y="67.1" width="26.93" height="27.93"/>
    <path class="cls-1" d="M171.23,95.03v119.71H52.53v-75.32l44.39-44.39h74.31ZM151.28,128.95h-42.89v5.99h42.89v-5.99ZM151.28,151.9h-78.8v5.99h78.8v-5.99ZM151.28,174.84h-78.8v5.99h78.8v-5.99Z"/>
    <polygon class="cls-1" points="194.5 35.25 98.27 35.25 68.41 68.14 194.5 68.14 194.5 194.23 227.39 164.36 227.39 68.14 227.39 35.25 194.5 35.25"/>
  </g>
  <g>
    <path class="cls-2" d="M288.29,32.93h57.71v172.4h-57.71V32.93Z"/>
    <path class="cls-2" d="M355.74,205.32V32.93h60.14l30.44,47.73c5.84,9.25,11.93,19.72,22.89,41.15h.97c-3.9-21.43-5.36-38.23-5.36-52.35v-36.52h57.47v172.4h-56.25l-33.36-49.92c-6.33-9.25-12.91-19.72-24.11-41.15h-.97c3.9,21.43,5.6,40.91,5.6,55.03v36.04h-57.47Z"/>
    <path class="cls-2" d="M576.83,205.32l-57.71-170.94,1.22-1.46h65.5l18.99,81.33c1.95,8.77,6.33,22.65,8.04,39.69h.97c1.95-17.04,5.36-30.92,7.31-39.69l18.51-81.33h65.5l1.22,1.7-57.95,170.69h-71.59Z"/>
    <path class="cls-2" d="M688.59,119.12c0-54.06,40.42-91.07,94.96-91.07s94.96,37.01,94.96,91.07-40.42,91.07-94.96,91.07-94.96-38.72-94.96-91.07ZM818.38,119.12c0-23.62-15.1-38.72-34.82-38.72s-34.82,15.1-34.82,38.72,15.1,38.72,34.82,38.72,34.82-16.07,34.82-38.72Z"/>
    <path class="cls-2" d="M883.39,32.93h57.71v172.4h-57.71V32.93Z"/>
    <path class="cls-2" d="M945.96,119.86c0-56.49,37.74-91.8,88.63-91.8,19.72,0,37.74,4.87,55.03,14.12l-8.28,54.54h-1.95c-11.44-10.23-24.35-15.58-37.5-15.58-21.18,0-34.33,14.37-34.33,37.74s13.39,38.23,35.06,38.23c13.15,0,26.54-5.36,37.74-15.58h1.95l8.28,54.54c-17.53,9.25-36.28,14.12-55.76,14.12-53.33,0-88.88-35.31-88.88-90.34Z"/>
    <path class="cls-2" d="M1155.61,137.14v19.72h61.12l-5.11,48.46h-113.71V32.93h113.71l5.11,48.46h-61.12v18.26h52.6v37.5h-52.6Z"/>
    <path class="cls-2" d="M1381.34,200.7l-1.95,4.63h-60.63l-35.55-56h-2.68v56h-57.71V32.93h70.62c48.46,0,71.59,19.97,71.59,59.41,0,22.16-9.5,37.99-26.54,47l42.86,61.36ZM1280.77,78.7v30.44h11.69c12.17,0,18.26-5.6,18.26-15.34s-6.57-15.1-18.26-15.1h-11.69Z"/>
  </g>
</svg>
